# xmcd
#
# Track frame offsets:
#	182
#	22892
#	45190
#	66407
#	92042
#	110687
#	135277
#	158160
#	180845
#	205140
#
# Disc length: 2971 seconds
#
# Revision: 1
# Processed by: cddbd v1.5PL3 Copyright (c) Steve Scherf et al.
# Submitted via: audiograbber 1.82.01
#
DISCID=740b990a
DTITLE=Burn - Spark To A Flame
DYEAR=1995
DGENRE=Hard Rock
TTITLE0=First Time
TTITLE1=Workin' Man
TTITLE2=Like Only A Woman Can
TTITLE3=Diamonds To Dust
TTITLE4=Ain't Good For Me
TTITLE5=Shotgun Justice
TTITLE6=Over You
TTITLE7=Down On Love
TTITLE8=Wanted Man
TTITLE9=Shake Some Bones
EXTD=YEAR: 1995
EXTT0=
EXTT1=
EXTT2=
EXTT3=
EXTT4=
EXTT5=
EXTT6=
EXTT7=
EXTT8=
EXTT9=
PLAYORDER=
